<?xml version="1.0" encoding="UTF-8"?><svg id="Livello_1" xmlns="http://www.w3.org/2000/svg" viewBox="0 0 360 220"><defs><style>.cls-1{fill:#05085e;}.cls-2{fill:#160744;}.cls-3{fill:#4965d8;}</style></defs><g><path class="cls-2" d="M12.5,204.19v-25.96c0-2.04,.5-3.88,1.5-5.53,1-1.65,2.35-2.96,4.05-3.92,1.7-.97,3.61-1.45,5.71-1.45h13.74v7.37h-12.64c-.98,0-1.82,.35-2.5,1.05-.69,.7-1.03,1.56-1.03,2.58v5.32h14.37v7.32h-14.37v13.22H12.5Z"/><path class="cls-2" d="M51.83,204.82c-2.77,0-5.27-.61-7.48-1.84s-3.96-2.91-5.24-5.06c-1.28-2.14-1.92-4.55-1.92-7.21s.64-5.12,1.92-7.24c1.28-2.12,3.03-3.81,5.24-5.06,2.21-1.25,4.7-1.87,7.48-1.87s5.26,.62,7.45,1.87c2.19,1.25,3.93,2.93,5.21,5.06,1.28,2.12,1.92,4.54,1.92,7.24s-.64,5.07-1.92,7.21c-1.28,2.14-3.03,3.83-5.24,5.06s-4.69,1.84-7.42,1.84Zm0-7.11c1.3,0,2.42-.32,3.37-.95,.95-.63,1.68-1.47,2.21-2.53,.53-1.05,.79-2.25,.79-3.58s-.26-2.47-.79-3.53c-.53-1.05-1.26-1.9-2.21-2.53-.95-.63-2.07-.95-3.37-.95s-2.43,.32-3.4,.95c-.97,.63-1.71,1.47-2.24,2.53-.53,1.05-.79,2.23-.79,3.53s.26,2.53,.79,3.58c.53,1.05,1.27,1.9,2.24,2.53,.96,.63,2.1,.95,3.4,.95Z"/><path class="cls-2" d="M82.11,204.82c-2.77,0-5.17-.54-7.19-1.61-2.02-1.07-3.57-2.53-4.66-4.37-1.09-1.84-1.63-3.89-1.63-6.13v-15.53h8.16v15.32c0,.95,.23,1.82,.68,2.61,.46,.79,1.08,1.42,1.87,1.9s1.69,.71,2.71,.71,1.87-.24,2.66-.71c.79-.47,1.41-1.11,1.87-1.9,.46-.79,.68-1.66,.68-2.61v-15.32h8.16v15.53c0,2.25-.53,4.29-1.58,6.13-1.05,1.84-2.57,3.3-4.55,4.37-1.98,1.07-4.38,1.61-7.19,1.61Z"/><path class="cls-2" d="M98.91,204.19v-15.53c0-2.25,.54-4.28,1.63-6.11,1.09-1.83,2.64-3.28,4.66-4.37,2.02-1.09,4.41-1.63,7.19-1.63s5.2,.54,7.19,1.63c1.98,1.09,3.5,2.55,4.55,4.37,1.05,1.83,1.58,3.86,1.58,6.11v15.53h-8.16v-15.32c0-.95-.23-1.82-.68-2.61-.46-.79-1.08-1.42-1.87-1.9-.79-.47-1.68-.71-2.66-.71s-1.92,.24-2.71,.71-1.41,1.11-1.87,1.9c-.46,.79-.68,1.66-.68,2.61v15.32h-8.16Z"/><path class="cls-2" d="M136.32,203.76c-1.77-.7-3.28-1.71-4.53-3.03-1.25-1.32-2.2-2.87-2.87-4.66-.67-1.79-1-3.74-1-5.85,0-2.74,.55-5.12,1.66-7.16,1.11-2.04,2.62-3.63,4.55-4.79,1.93-1.16,4.18-1.74,6.74-1.74,1.09,0,2.11,.14,3.08,.42,.96,.28,1.84,.69,2.63,1.24,.79,.54,1.45,1.18,1.97,1.92h.16v-14.37h8.16v24.43c0,2.95-.6,5.53-1.79,7.74-1.19,2.21-2.88,3.91-5.05,5.11-2.18,1.19-4.72,1.79-7.63,1.79-2.28,0-4.31-.35-6.08-1.05Zm9.37-6.92c.93-.61,1.64-1.46,2.13-2.53,.49-1.07,.74-2.27,.74-3.61s-.25-2.53-.74-3.58c-.49-1.05-1.2-1.89-2.13-2.5-.93-.61-2.03-.92-3.29-.92s-2.35,.31-3.27,.92c-.91,.61-1.62,1.45-2.13,2.5-.51,1.05-.76,2.25-.76,3.58s.25,2.54,.76,3.61c.51,1.07,1.22,1.91,2.13,2.53,.91,.61,2,.92,3.27,.92s2.36-.31,3.29-.92Z"/><path class="cls-2" d="M174.26,204.19c-3.05,0-5.74-.57-8.06-1.71-2.32-1.14-4.12-2.72-5.4-4.74-1.28-2.02-1.92-4.36-1.92-7.03,0-2.95,.61-5.48,1.84-7.58,1.23-2.11,2.87-3.73,4.92-4.87,2.05-1.14,4.33-1.71,6.82-1.71,2.84,0,5.22,.6,7.13,1.79,1.91,1.19,3.36,2.82,4.34,4.87,.98,2.05,1.47,4.4,1.47,7.03,0,.46-.03,.99-.08,1.61-.05,.61-.11,1.1-.18,1.45h-17.69c.21,.91,.61,1.69,1.21,2.32,.6,.63,1.35,1.1,2.26,1.4,.91,.3,1.93,.45,3.05,.45h8.27v6.74h-8Zm-7-16.01h10.27c-.07-.56-.18-1.11-.32-1.63-.14-.53-.36-.99-.66-1.4-.3-.4-.64-.75-1.03-1.05-.39-.3-.83-.53-1.34-.71-.51-.18-1.08-.26-1.71-.26-.81,0-1.53,.14-2.16,.42-.63,.28-1.16,.66-1.58,1.13s-.75,1.02-.97,1.63c-.23,.61-.4,1.24-.5,1.87Z"/><path class="cls-2" d="M219.33,204.19c-1.51,0-2.79-.32-3.84-.95-1.05-.63-1.88-1.47-2.47-2.53-.6-1.05-.9-2.19-.9-3.42s.31-2.27,.92-3.24c.61-.96,1.45-1.78,2.5-2.45l9.64-6.42c.17-.11,.3-.22,.37-.34,.07-.12,.11-.22,.11-.29,0-.18-.07-.32-.21-.45-.14-.12-.32-.18-.53-.18h-11.58l-.05-6.74h14.48c1.4,0,2.62,.32,3.66,.97,1.04,.65,1.86,1.5,2.47,2.55,.61,1.05,.92,2.19,.92,3.42,0,1.16-.29,2.24-.87,3.24-.58,1-1.36,1.83-2.34,2.5l-9.64,6.32c-.14,.11-.25,.21-.32,.32s-.1,.21-.1,.32c0,.18,.07,.33,.21,.45,.14,.12,.32,.18,.53,.18h12v6.74h-14.95Z"/><path class="cls-2" d="M240.08,204.17v-37.84h13.89c4,0,7.47,.81,10.41,2.43,2.94,1.62,5.23,3.86,6.87,6.7,1.64,2.85,2.46,6.11,2.46,9.79s-.82,6.94-2.46,9.79c-1.64,2.85-3.93,5.08-6.87,6.7-2.94,1.62-6.41,2.43-10.41,2.43h-13.89Zm9.08-7.57h4.6c2.09,0,3.96-.46,5.6-1.38,1.64-.92,2.93-2.22,3.87-3.92,.94-1.69,1.41-3.71,1.41-6.06s-.47-4.36-1.41-6.05c-.94-1.69-2.23-3-3.87-3.92s-3.51-1.38-5.6-1.38h-4.6v22.71Z"/><path class="cls-2" d="M270.6,204.17l12.27-33.46c.61-1.66,1.62-2.91,3.03-3.76,1.41-.85,2.99-1.27,4.76-1.27s3.35,.41,4.76,1.22c1.41,.81,2.41,2.06,3.03,3.76l12.33,33.52h-9.79l-2.38-7.3h-16.06l-2.49,7.3h-9.46Zm14.27-14.81h11.41l-4.81-15.08c-.07-.22-.17-.37-.3-.46-.13-.09-.28-.14-.46-.14s-.33,.05-.46,.16c-.13,.11-.21,.25-.24,.43l-5.14,15.08Z"/><path class="cls-2" d="M327.44,204.87c-3.03,0-5.77-.5-8.22-1.51-2.45-1.01-4.56-2.41-6.33-4.22-1.77-1.8-3.13-3.89-4.08-6.27s-1.43-4.94-1.43-7.68,.48-5.29,1.43-7.65c.96-2.36,2.32-4.44,4.08-6.24,1.77-1.8,3.87-3.2,6.33-4.19,2.45-.99,5.19-1.49,8.22-1.49s5.72,.5,8.19,1.49c2.47,.99,4.58,2.39,6.33,4.19,1.75,1.8,3.11,3.88,4.08,6.24,.97,2.36,1.46,4.91,1.46,7.65s-.49,5.3-1.46,7.68c-.97,2.38-2.33,4.47-4.08,6.27-1.75,1.8-3.86,3.21-6.33,4.22-2.47,1.01-5.2,1.51-8.19,1.51Zm0-7.73c1.59,0,3.06-.3,4.41-.89,1.35-.59,2.51-1.43,3.49-2.51,.97-1.08,1.73-2.35,2.27-3.81,.54-1.46,.81-3.04,.81-4.73s-.27-3.26-.81-4.7c-.54-1.44-1.3-2.7-2.27-3.78-.97-1.08-2.14-1.92-3.49-2.51-1.35-.6-2.82-.89-4.41-.89s-3.1,.3-4.43,.89c-1.33,.59-2.5,1.43-3.49,2.51-.99,1.08-1.75,2.34-2.27,3.78-.52,1.44-.78,3.01-.78,4.7s.26,3.27,.78,4.73c.52,1.46,1.28,2.73,2.27,3.81,.99,1.08,2.15,1.92,3.49,2.51,1.33,.6,2.81,.89,4.43,.89Z"/><path class="cls-2" d="M187.66,188.89c0-8.38,4.9-12.29,12.08-12.29s12.02,3.86,12.08,12.35v.16h-8.16v-.22c0-3.59-1.63-4.68-3.92-4.68s-3.92,1.09-3.92,4.68v15.29h-8.16v-15.29Z"/></g><g><g><path class="cls-1" d="M171.62,65.52h28.73v-2.11c-.01-5.36-4.36-9.7-9.72-9.7h-19.87c-6.92,0-12.53,5.61-12.53,12.53v22.92c0,6.67,5.51,12.13,12.09,12.52v-16.47h15.17v-3.73c0-4.46-3.61-8.07-8.07-8.07h-7.1v-6.59c0-.72,.58-1.31,1.31-1.31Z"/><path class="cls-3" d="M202.5,84.31v-11.35h-2.84c-4.22,0-7.65,3.42-7.65,7.65v3.7c0,3.81-3.09,6.89-6.89,6.89h-5.75v10.48h5.75c9.6,0,17.38-7.78,17.38-17.38Z"/></g><g><path class="cls-3" d="M210.65,65.47h11.19c0-.77-.08-1.98-.08-1.98-1.79-16.81-15.9-29.49-32.82-29.49v4.54c0,3.48,2.36,6.49,5.72,7.4,8.46,2.28,16,8.69,16,19.53Z"/><path class="cls-3" d="M171.07,120.33s19.82-.04,20.77-.13l-2.65-5.86c-1.24-2.74-3.96-4.49-6.97-4.49h-11.16c-12.01,0-21.82-9.6-22.17-21.53l-10.41,1.7c.57,8.05,4.08,15.29,9.44,20.68l-5.77,7.47c-7.26-6.83-11.79-16.52-11.79-27.25v-27.16c0-6.19,1.51-12.03,4.18-17.18l-8.83-7.15c-4.15,7.16-6.54,15.48-6.54,24.33v27.16c0,14.32,6.23,27.23,16.12,36.13,2.76,2.49,5.81,4.66,9.09,6.47l12.67-16.36c4.25,2.03,9,3.16,14.01,3.16Z"/><path class="cls-3" d="M167.82,26.31h2.43v8.05c-17.66,.43-31.85,14.88-31.85,32.65v11.68l4.07-.66c3.7-.61,6.42-3.8,6.42-7.55v-3.47c0-12.23,9.95-22.18,22.18-22.18h9.67V22.64c0-4.14-3.36-7.5-7.49-7.5h-5.42c-13.94-.01-26.53,5.89-35.41,15.31l8.72,7.06c6.79-6.91,16.25-11.2,26.69-11.2Z"/><path class="cls-3" d="M213.58,121.64c-6.07,4.24-13.45,6.73-21.39,6.73h-24.36c-1.71,0-3.4-.12-5.05-.34l-7.61,9.86c4.04,1.09,8.29,1.67,12.67,1.67h24.36c13.46,0,25.67-5.5,34.47-14.37l-3.78-3.19c-2.65-2.24-6.46-2.34-9.3-.35Z"/><path class="cls-3" d="M223.23,42.85c2.14,3.16,6.21,4.37,9.66,2.74l3.67-1.73c-7.62-16.92-24.65-28.74-44.37-28.74h-3.47v11.18h3.47c12.91,0,24.31,6.57,31.04,16.54Z"/><path class="cls-3" d="M239.94,54.63l-10.55,4.97c.15,1.36,.23,2.75,.23,4.16v9.19h-10.88c-4.22,0-7.65,3.42-7.65,7.65v7.07c0,6.8-3.08,12.9-7.91,16.97-2.61,2.2-3.45,5.87-2.04,8.99l1.64,3.62c11.1-5.23,18.8-16.52,18.8-29.58v-4.16h8.04v7.41c0,6.58-1.71,12.78-4.71,18.16l8.67,7.31c4.58-7.42,7.22-16.14,7.22-25.47v-27.16c0-3.12-.29-6.17-.87-9.13Z"/></g></g></svg>