<?xml version="1.0" encoding="UTF-8"?><svg id="Livello_1" xmlns="http://www.w3.org/2000/svg" viewBox="0 0 140 140"><defs><style>.cls-1{fill:#fff;}.cls-2{fill:#4965d8;}</style></defs><g><path class="cls-1" d="M61.99,58.71h27.45v-2.01c-.01-5.12-4.17-9.26-9.28-9.26h-18.99c-6.61,0-11.97,5.36-11.97,11.97v21.89c0,6.37,5.27,11.59,11.55,11.96v-15.73h14.49v-3.57c0-4.26-3.45-7.71-7.71-7.71h-6.78v-6.29c0-.69,.56-1.25,1.25-1.25Z"/><path class="cls-2" d="M91.49,76.66v-10.84h-2.71c-4.03,0-7.31,3.27-7.31,7.31v3.54c0,3.64-2.95,6.58-6.58,6.58h-5.5v10.02h5.5c9.17,0,16.6-7.43,16.6-16.6Z"/></g><g><path class="cls-2" d="M99.28,58.66h10.69c0-.74-.08-1.89-.08-1.89-1.71-16.06-15.19-28.17-31.36-28.17v4.34c0,3.33,2.25,6.2,5.47,7.07,8.08,2.18,15.28,8.3,15.28,18.66Z"/><path class="cls-2" d="M61.47,111.07s18.93-.04,19.85-.13l-2.53-5.6c-1.18-2.61-3.79-4.29-6.66-4.29h-10.66c-11.47,0-20.85-9.17-21.18-20.57l-9.94,1.62c.55,7.69,3.89,14.61,9.02,19.76l-5.52,7.14c-6.93-6.52-11.27-15.78-11.27-26.03v-25.95c0-5.91,1.44-11.49,3.99-16.41l-8.43-6.83c-3.97,6.84-6.24,14.78-6.24,23.25v25.95c0,13.68,5.95,26.01,15.4,34.52,2.64,2.38,5.55,4.45,8.68,6.18l12.11-15.63c4.06,1.94,8.59,3.02,13.38,3.02Z"/><path class="cls-2" d="M58.37,21.25h2.32v7.69c-16.87,.41-30.42,14.22-30.42,31.19v11.16l3.89-.63c3.53-.58,6.13-3.63,6.13-7.21v-3.31c0-11.69,9.51-21.19,21.19-21.19h9.24V17.75c0-3.95-3.21-7.17-7.16-7.17h-5.18c-13.32-.01-25.35,5.62-33.83,14.63l8.33,6.74c6.49-6.6,15.53-10.7,25.5-10.7Z"/><path class="cls-2" d="M102.08,112.32c-5.8,4.05-12.85,6.43-20.44,6.43h-23.27c-1.64,0-3.25-.11-4.83-.33l-7.27,9.42c3.86,1.04,7.92,1.6,12.1,1.6h23.27c12.86,0,24.52-5.26,32.94-13.73l-3.61-3.05c-2.53-2.14-6.17-2.24-8.89-.34Z"/><path class="cls-2" d="M111.3,37.05c2.04,3.02,5.93,4.17,9.23,2.62l3.5-1.65c-7.28-16.17-23.55-27.45-42.39-27.45h-3.32v10.68h3.32c12.33,0,23.23,6.27,29.66,15.8Z"/><path class="cls-2" d="M127.27,48.3l-10.08,4.75c.15,1.3,.22,2.63,.22,3.97v8.78h-10.39c-4.03,0-7.31,3.27-7.31,7.31v6.75c0,6.5-2.94,12.32-7.56,16.21-2.5,2.1-3.29,5.61-1.95,8.59l1.56,3.46c10.6-5,17.96-15.78,17.96-28.26v-3.97h7.68v7.08c0,6.29-1.64,12.21-4.5,17.35l8.29,6.99c4.37-7.09,6.9-15.42,6.9-24.33v-25.95c0-2.98-.28-5.9-.83-8.72Z"/></g></svg>