<svg xmlns="http://www.w3.org/2000/svg" width="22.203" height="22.203" viewBox="0 0 22.203 22.203">
  <g id="icon-sun" transform="translate(-500.502 -497.064)">
    <g id="Raggruppa_28" data-name="Raggruppa 28" transform="translate(506.28 502.842)">
      <circle id="Ellisse_7" data-name="Ellisse 7" cx="5.323" cy="5.323" r="5.323" transform="translate(0)" fill="#f7f9fc"/>
    </g>
    <g id="Raggruppa_29" data-name="Raggruppa 29" transform="translate(510.44 497.064)">
      <path id="Tracciato_92" data-name="Tracciato 92" d="M540.1,501.5a1.163,1.163,0,0,1-1.164-1.164v-2.113a1.164,1.164,0,0,1,2.327,0v2.113A1.163,1.163,0,0,1,540.1,501.5Z" transform="translate(-538.937 -497.064)" fill="#f7f9fc"/>
    </g>
    <g id="Raggruppa_30" data-name="Raggruppa 30" transform="translate(503.413 499.975)">
      <path id="Tracciato_93" data-name="Tracciato 93" d="M514.417,512.143a1.16,1.16,0,0,1-.823-.341l-1.494-1.494a1.164,1.164,0,1,1,1.646-1.645l1.494,1.494a1.164,1.164,0,0,1-.823,1.986Z" transform="translate(-511.76 -508.322)" fill="#f7f9fc"/>
    </g>
    <g id="Raggruppa_31" data-name="Raggruppa 31" transform="translate(500.502 507.002)">
      <path id="Tracciato_94" data-name="Tracciato 94" d="M503.778,537.827h-2.113a1.164,1.164,0,0,1,0-2.327h2.113a1.164,1.164,0,0,1,0,2.327Z" transform="translate(-500.502 -535.5)" fill="#f7f9fc"/>
    </g>
    <g id="Raggruppa_32" data-name="Raggruppa 32" transform="translate(503.413 512.535)">
      <path id="Tracciato_95" data-name="Tracciato 95" d="M512.923,560.721a1.164,1.164,0,0,1-.823-1.986l1.494-1.494a1.163,1.163,0,0,1,1.646,1.645l-1.494,1.494A1.16,1.16,0,0,1,512.923,560.721Z" transform="translate(-511.76 -556.9)" fill="#f7f9fc"/>
    </g>
    <g id="Raggruppa_33" data-name="Raggruppa 33" transform="translate(510.44 514.827)">
      <path id="Tracciato_96" data-name="Tracciato 96" d="M540.1,570.2a1.164,1.164,0,0,1-1.164-1.164v-2.113a1.164,1.164,0,0,1,2.327,0v2.113A1.163,1.163,0,0,1,540.1,570.2Z" transform="translate(-538.937 -565.764)" fill="#f7f9fc"/>
    </g>
    <g id="Raggruppa_34" data-name="Raggruppa 34" transform="translate(515.973 512.535)">
      <path id="Tracciato_97" data-name="Tracciato 97" d="M563,560.721a1.159,1.159,0,0,1-.823-.341l-1.494-1.494a1.163,1.163,0,0,1,1.646-1.645l1.494,1.494a1.164,1.164,0,0,1-.823,1.986Z" transform="translate(-560.338 -556.9)" fill="#f7f9fc"/>
    </g>
    <g id="Raggruppa_35" data-name="Raggruppa 35" transform="translate(518.265 507.002)">
      <path id="Tracciato_98" data-name="Tracciato 98" d="M572.478,537.827h-2.113a1.164,1.164,0,0,1,0-2.327h2.113a1.164,1.164,0,0,1,0,2.327Z" transform="translate(-569.202 -535.5)" fill="#f7f9fc"/>
    </g>
    <g id="Raggruppa_36" data-name="Raggruppa 36" transform="translate(515.973 499.975)">
      <path id="Tracciato_99" data-name="Tracciato 99" d="M561.5,512.143a1.164,1.164,0,0,1-.823-1.986l1.494-1.494a1.163,1.163,0,0,1,1.645,1.645l-1.494,1.494A1.16,1.16,0,0,1,561.5,512.143Z" transform="translate(-560.338 -508.322)" fill="#f7f9fc"/>
    </g>
  </g>
</svg>
