<svg xmlns="http://www.w3.org/2000/svg" width="311.906" height="62.108" viewBox="0 0 311.906 62.108">
  <g id="fd-website-assets_logo-hor-neg1" transform="translate(-4.72 -8.54)">
    <g id="Raggruppa_24" data-name="Raggruppa 24" transform="translate(79.093 25.688)">
      <path id="Tracciato_72" data-name="Tracciato 72" d="M121.69,63.539V45.132a7.471,7.471,0,0,1,1.062-3.923,7.776,7.776,0,0,1,2.874-2.779,8.045,8.045,0,0,1,4.05-1.03h9.747v5.227h-8.959a2.382,2.382,0,0,0-1.774.744,2.528,2.528,0,0,0-.731,1.831v3.77h10.192V54.16H127.959v9.372H121.69Z" transform="translate(-121.69 -36.198)" fill="#fff"/>
      <path id="Tracciato_73" data-name="Tracciato 73" d="M159.607,67.728a10.748,10.748,0,0,1-5.3-1.31,10.106,10.106,0,0,1-3.713-13.829A10,10,0,0,1,154.3,49a11.254,11.254,0,0,1,10.587,0,10,10,0,0,1,3.694,3.586,9.953,9.953,0,0,1-3.713,13.829A10.654,10.654,0,0,1,159.607,67.728Zm0-5.042A4.188,4.188,0,0,0,162,62.012a4.526,4.526,0,0,0,1.571-1.793,5.556,5.556,0,0,0,.56-2.537,5.4,5.4,0,0,0-.56-2.5A4.614,4.614,0,0,0,162,53.39a4.611,4.611,0,0,0-4.8,0,4.475,4.475,0,0,0-1.59,1.793,5.488,5.488,0,0,0-.56,2.5,5.65,5.65,0,0,0,.56,2.537,4.561,4.561,0,0,0,1.59,1.793A4.33,4.33,0,0,0,159.607,62.686Z" transform="translate(-131.719 -39.942)" fill="#fff"/>
      <path id="Tracciato_74" data-name="Tracciato 74" d="M193.843,67.986a10.8,10.8,0,0,1-5.1-1.138,8.234,8.234,0,0,1-3.306-3.1A8.431,8.431,0,0,1,184.28,59.4V48.39h5.786V59.256a3.621,3.621,0,0,0,.483,1.85,3.665,3.665,0,0,0,1.323,1.342,3.712,3.712,0,0,0,1.92.5,3.555,3.555,0,0,0,1.888-.5A3.714,3.714,0,0,0,197,61.107a3.621,3.621,0,0,0,.483-1.85V48.39h5.786V59.4a8.62,8.62,0,0,1-1.119,4.349,7.947,7.947,0,0,1-3.23,3.1,10.619,10.619,0,0,1-5.1,1.138Z" transform="translate(-144.483 -40.201)" fill="#fff"/>
      <path id="Tracciato_75" data-name="Tracciato 75" d="M218.05,67.286V56.274a8.2,8.2,0,0,1,4.464-7.426,11.814,11.814,0,0,1,10.2,0,8.2,8.2,0,0,1,3.23,3.1,8.549,8.549,0,0,1,1.119,4.33V67.286h-5.786V56.42a3.672,3.672,0,0,0-1.806-3.192,3.586,3.586,0,0,0-1.888-.5,3.648,3.648,0,0,0-3.243,1.844,3.621,3.621,0,0,0-.483,1.85V67.286h-5.786Z" transform="translate(-156.781 -39.946)" fill="#fff"/>
      <path id="Tracciato_76" data-name="Tracciato 76" d="M256.358,62.6a8.787,8.787,0,0,1-3.211-2.149,9.6,9.6,0,0,1-2.035-3.306,11.85,11.85,0,0,1-.712-4.146,10.518,10.518,0,0,1,1.176-5.08,8.738,8.738,0,0,1,3.23-3.4,9.121,9.121,0,0,1,4.781-1.234,7.9,7.9,0,0,1,2.187.3,6.387,6.387,0,0,1,1.869.877,5.7,5.7,0,0,1,1.4,1.361h.114V35.63h5.786V52.956a11.372,11.372,0,0,1-1.272,5.487,8.793,8.793,0,0,1-3.586,3.624,11.1,11.1,0,0,1-5.411,1.272,11.646,11.646,0,0,1-4.311-.744ZM263,57.687a4.15,4.15,0,0,0,1.513-1.793,6.023,6.023,0,0,0,.521-2.556,5.9,5.9,0,0,0-.521-2.537A4.247,4.247,0,0,0,263,49.027a4.166,4.166,0,0,0-2.333-.655,4.025,4.025,0,0,0-2.314.655,4.436,4.436,0,0,0-1.513,1.774,5.738,5.738,0,0,0-.54,2.537,5.862,5.862,0,0,0,.54,2.556,4.409,4.409,0,0,0,1.513,1.793,4.025,4.025,0,0,0,2.314.655A4.116,4.116,0,0,0,263,57.687Z" transform="translate(-168.562 -35.554)" fill="#fff"/>
      <path id="Tracciato_77" data-name="Tracciato 77" d="M295.838,67.283a12.77,12.77,0,0,1-5.71-1.214,9.264,9.264,0,0,1-3.828-3.357,9.085,9.085,0,0,1-1.361-4.985,10.44,10.44,0,0,1,1.31-5.379,9.1,9.1,0,0,1,3.491-3.453,9.792,9.792,0,0,1,4.832-1.214,9.415,9.415,0,0,1,5.061,1.272,8.093,8.093,0,0,1,3.077,3.453,11.368,11.368,0,0,1,1.043,4.985c0,.324-.019.706-.057,1.138s-.083.776-.127,1.024H291.025a3.4,3.4,0,0,0,.858,1.64,3.876,3.876,0,0,0,1.609.992,7,7,0,0,0,2.168.318h5.862v4.781h-5.678Zm-4.966-11.35h7.28a9.553,9.553,0,0,0-.223-1.157,2.972,2.972,0,0,0-.464-.992,3.658,3.658,0,0,0-.725-.744,3.241,3.241,0,0,0-.954-.5,3.636,3.636,0,0,0-1.214-.184,3.786,3.786,0,0,0-1.532.3,3.153,3.153,0,0,0-1.119.8,3.738,3.738,0,0,0-.693,1.157A7.146,7.146,0,0,0,290.872,55.933Z" transform="translate(-181.141 -39.942)" fill="#fff"/>
      <path id="Tracciato_78" data-name="Tracciato 78" d="M349.418,67.538a5.2,5.2,0,0,1-2.728-.674,4.894,4.894,0,0,1-2.391-4.222,4.107,4.107,0,0,1,.655-2.3,5.581,5.581,0,0,1,1.774-1.736l6.835-4.553a.693.693,0,0,0,.261-.242.451.451,0,0,0,.076-.2.417.417,0,0,0-.146-.318.542.542,0,0,0-.375-.134h-8.215l-.038-4.781H355.4a4.736,4.736,0,0,1,2.594.693,5.207,5.207,0,0,1,1.755,1.812,4.766,4.766,0,0,1,.655,2.429,4.472,4.472,0,0,1-.617,2.3,5.4,5.4,0,0,1-1.66,1.774l-6.835,4.483a.919.919,0,0,0-.223.223.391.391,0,0,0-.076.223.417.417,0,0,0,.146.318.542.542,0,0,0,.375.134h8.514v4.781H349.418Z" transform="translate(-202.758 -40.197)" fill="#fff"/>
      <path id="Tracciato_79" data-name="Tracciato 79" d="M375.48,63.118V36.28h9.849A15.045,15.045,0,0,1,392.711,38a12.426,12.426,0,0,1,4.87,4.756,13.643,13.643,0,0,1,1.742,6.937,13.627,13.627,0,0,1-1.742,6.937,12.426,12.426,0,0,1-4.87,4.756,15.028,15.028,0,0,1-7.382,1.723H375.48Zm6.441-5.366h3.262a7.946,7.946,0,0,0,3.968-.979,6.944,6.944,0,0,0,2.74-2.779,9.725,9.725,0,0,0,0-8.584,6.985,6.985,0,0,0-2.74-2.779,8.013,8.013,0,0,0-3.968-.979h-3.262Z" transform="translate(-214.113 -35.79)" fill="#fff"/>
      <path id="Tracciato_80" data-name="Tracciato 80" d="M409.52,62.856l8.7-23.729a5.031,5.031,0,0,1,2.149-2.664,6.449,6.449,0,0,1,3.376-.9,6.607,6.607,0,0,1,3.376.865,4.853,4.853,0,0,1,2.149,2.664l8.743,23.767h-6.937L429.4,57.681H418.008l-1.761,5.176h-6.708Zm10.122-10.5h8.088l-3.414-10.695a.627.627,0,0,0-.21-.324.543.543,0,0,0-.324-.1.481.481,0,0,0-.324.114.523.523,0,0,0-.172.305Z" transform="translate(-226.509 -35.528)" fill="#fff"/>
      <path id="Tracciato_81" data-name="Tracciato 81" d="M464.767,63.334a15.089,15.089,0,0,1-5.824-1.075,13.168,13.168,0,0,1-4.483-2.988,13.393,13.393,0,0,1-2.893-4.444,14.413,14.413,0,0,1-1.017-5.443,14.268,14.268,0,0,1,1.017-5.424,13.543,13.543,0,0,1,2.893-4.425,13,13,0,0,1,4.483-2.969,15.475,15.475,0,0,1,5.824-1.055,15.3,15.3,0,0,1,5.805,1.055,12.853,12.853,0,0,1,4.483,2.969,13.855,13.855,0,0,1,2.893,4.425,14.038,14.038,0,0,1,1.036,5.424,14.18,14.18,0,0,1-1.036,5.443,13.907,13.907,0,0,1-2.893,4.444,12.987,12.987,0,0,1-4.483,2.988,15.15,15.15,0,0,1-5.805,1.075Zm0-5.481a7.673,7.673,0,0,0,3.122-.629,7.2,7.2,0,0,0,2.473-1.78,8.228,8.228,0,0,0,1.609-2.7,9.644,9.644,0,0,0,.572-3.357,9.486,9.486,0,0,0-.572-3.338,8.384,8.384,0,0,0-1.609-2.683,7.121,7.121,0,0,0-2.473-1.78,8.1,8.1,0,0,0-6.263,0,7.454,7.454,0,0,0-2.473,1.78,7.951,7.951,0,0,0-1.609,2.683,9.78,9.78,0,0,0-.553,3.338,9.944,9.944,0,0,0,.553,3.357,7.914,7.914,0,0,0,1.609,2.7,7.364,7.364,0,0,0,2.473,1.78A7.677,7.677,0,0,0,464.767,57.853Z" transform="translate(-241.451 -35.51)" fill="#fff"/>
      <path id="Tracciato_82" data-name="Tracciato 82" d="M317.03,56.457c0-5.939,3.472-8.717,8.565-8.717s8.526,2.74,8.565,8.755v.114h-5.786v-.153c0-2.543-1.157-3.319-2.779-3.319s-2.779.769-2.779,3.319V67.3H317.03Z" transform="translate(-192.827 -39.964)" fill="#fff"/>
    </g>
    <g id="Raggruppa_27" data-name="Raggruppa 27" transform="translate(4.72 8.54)">
      <g id="Raggruppa_25" data-name="Raggruppa 25" transform="translate(19.488 19.266)">
        <path id="Tracciato_83" data-name="Tracciato 83" d="M42.053,44.728H56.4V43.679a4.848,4.848,0,0,0-4.851-4.839H41.627A6.256,6.256,0,0,0,35.37,45.1V56.535a6.4,6.4,0,0,0,6.034,6.25V54.564h7.573V52.7a4.032,4.032,0,0,0-4.031-4.031H41.4V45.383A.654.654,0,0,1,42.053,44.728Z" transform="translate(-35.37 -38.84)" fill="#fff"/>
        <path id="Tracciato_84" data-name="Tracciato 84" d="M63.517,59.615V53.95H62.1a3.814,3.814,0,0,0-3.815,3.815v1.85a3.438,3.438,0,0,1-3.44,3.44H51.97v5.233h2.874A8.675,8.675,0,0,0,63.517,59.615Z" transform="translate(-41.415 -44.343)" fill="#4965d8"/>
      </g>
      <g id="Raggruppa_26" data-name="Raggruppa 26">
        <path id="Tracciato_85" data-name="Tracciato 85" d="M70.321,39.075H75.91c0-.388-.045-.986-.045-.986A16.434,16.434,0,0,0,59.48,23.37v2.27a3.834,3.834,0,0,0,2.855,3.694c4.222,1.138,7.986,4.336,7.986,9.747Z" transform="translate(-24.662 -13.941)" fill="#4965d8"/>
        <path id="Tracciato_86" data-name="Tracciato 86" d="M30.624,68s9.894-.019,10.37-.064l-1.323-2.925a3.814,3.814,0,0,0-3.478-2.244h-5.57a11.089,11.089,0,0,1-11.07-10.746l-5.195.846a16.257,16.257,0,0,0,4.711,10.326l-2.88,3.732a18.625,18.625,0,0,1-5.888-13.6V39.764a18.643,18.643,0,0,1,2.086-8.577L7.982,27.62A24.14,24.14,0,0,0,4.72,39.764V53.327a24.218,24.218,0,0,0,8.05,18.038A24.552,24.552,0,0,0,17.3,74.6l6.327-8.164a16.209,16.209,0,0,0,6.994,1.577Z" transform="translate(-4.72 -15.488)" fill="#4965d8"/>
        <path id="Tracciato_87" data-name="Tracciato 87" d="M32.786,14.126H34v4.018a16.294,16.294,0,0,0-15.9,16.3v5.831l2.028-.331a3.829,3.829,0,0,0,3.2-3.77V34.441a11.082,11.082,0,0,1,11.07-11.07h4.826V12.3A3.742,3.742,0,0,0,35.495,8.55H32.786A24.19,24.19,0,0,0,15.11,16.193l4.355,3.522a18.623,18.623,0,0,1,13.321-5.6Z" transform="translate(-8.504 -8.544)" fill="#4965d8"/>
        <path id="Tracciato_88" data-name="Tracciato 88" d="M62.122,91.756A18.58,18.58,0,0,1,51.44,95.113H39.277a18.431,18.431,0,0,1-2.524-.172l-3.8,4.921a24.132,24.132,0,0,0,6.32.833H51.434a24.21,24.21,0,0,0,17.212-7.172l-1.888-1.59a3.8,3.8,0,0,0-4.642-.178Z" transform="translate(-15.001 -38.588)" fill="#4965d8"/>
        <path id="Tracciato_89" data-name="Tracciato 89" d="M76.537,22.382a3.84,3.84,0,0,0,4.82,1.367l1.831-.865A24.31,24.31,0,0,0,61.036,8.54H59.3v5.583h1.736a18.679,18.679,0,0,1,15.5,8.253Z" transform="translate(-24.596 -8.54)" fill="#4965d8"/>
        <path id="Tracciato_90" data-name="Tracciato 90" d="M88.246,39.546l-5.265,2.48a18.645,18.645,0,0,1,.114,2.079V48.7h-5.43a3.814,3.814,0,0,0-3.815,3.815V56.04A11.033,11.033,0,0,1,69.9,64.509,3.813,3.813,0,0,0,68.885,69L69.7,70.8a16.335,16.335,0,0,0,9.385-14.77V53.961H83.1v3.7a18.546,18.546,0,0,1-2.353,9.067l4.33,3.65a24.147,24.147,0,0,0,3.605-12.717V44.1a23.938,23.938,0,0,0-.432-4.559Z" transform="translate(-27.963 -19.829)" fill="#4965d8"/>
      </g>
    </g>
  </g>
</svg>
